<svg width="19" height="15" viewBox="0 0 19 15" fill="none" xmlns="http://www.w3.org/2000/svg">
<path opacity="0.99" fill-rule="evenodd" clip-rule="evenodd" d="M18.9216 6C19.029 6.51629 19.0232 7 18.9216 7.49411C18.7202 8.47292 18.2973 9.36371 17.653 10.1664C17.3943 10.4478 17.1364 10.7286 16.8794 11.0087C17.3726 11.9831 17.8574 12.961 18.3337 13.9424C18.4591 14.4044 18.2735 14.6755 17.7767 14.7557C17.5916 14.7124 17.4162 14.6446 17.2507 14.5524C16.1671 13.9221 15.0842 13.2928 14.0018 12.6644C10.0487 14.04 6.30476 13.6624 2.77005 11.5316C1.73146 10.7715 0.937316 9.83228 0.387546 8.71406C-0.357961 6.70179 -0.0278762 4.86217 1.37768 3.19526C3.34909 1.24759 5.77287 0.19228 8.64895 0.0292143C11.6603 -0.165047 14.3419 0.609501 16.6938 2.35292C17.878 3.32771 18.6206 4.55425 18.9216 6Z" fill="#8E95A6"/>
</svg>
