<svg width="26" height="26" viewBox="0 0 26 26" fill="none" xmlns="http://www.w3.org/2000/svg">
<path fill-rule="evenodd" clip-rule="evenodd" d="M4.00012 0C1.79098 0 0.00012207 1.79086 0.00012207 4V22C0.00012207 24.2091 1.79098 26 4.00012 26H22.0001C24.2093 26 26.0001 24.2091 26.0001 22V4C26.0001 1.79086 24.2093 0 22.0001 0H4.00012ZM25.039 5.77808C25.3052 6.06526 25.2882 6.51386 25.001 6.78005L19.2624 12.0991C18.8683 12.4645 18.8576 13.0845 19.2389 13.4632L25.0355 19.2198C25.3134 19.4958 25.3149 19.9447 25.039 20.2225C24.7631 20.5004 24.3142 20.5019 24.0363 20.226L18.1173 14.3478C17.7675 14.0004 17.213 13.9859 16.8084 14.2673C15.5124 15.1685 14.1288 15.568 12.7241 15.5144C11.35 15.4619 10.0074 14.978 8.7528 14.185C8.34739 13.9287 7.81174 13.9726 7.48329 14.322L1.96715 20.1914C1.69899 20.4768 1.25028 20.4907 0.964936 20.2225C0.679595 19.9544 0.665673 19.5056 0.933841 19.2203L6.36771 13.4385C6.71832 13.0654 6.70824 12.481 6.34498 12.1203L0.968406 6.78077C0.690562 6.50484 0.689009 6.05592 0.964937 5.77808C1.24086 5.50023 1.68979 5.49868 1.96763 5.77461L8.46301 12.2252C9.87987 13.3913 11.3567 14.0431 12.7783 14.0974C14.1872 14.1512 15.6326 13.6223 17.0163 12.2482C17.0201 12.2444 17.024 12.2406 17.0279 12.2368C17.0299 12.235 17.0319 12.2331 17.0339 12.2313L24.037 5.74006C24.3242 5.47387 24.7728 5.49089 25.039 5.77808Z" fill="#CC222E"/>
</svg>
