<svg width="18" height="18" viewBox="0 0 18 18" fill="none" xmlns="http://www.w3.org/2000/svg">
<path opacity="0.99" fill-rule="evenodd" clip-rule="evenodd" d="M8.38886 0.00410232C11.9886 -0.0877489 14.7669 1.36282 16.7237 4.3558C18.2399 7.0611 18.4052 9.84771 17.2196 12.7156C15.8112 15.6192 13.5161 17.356 10.3343 17.9262C6.79853 18.3211 3.93122 17.1313 1.73242 14.3571C-0.0384351 11.7975 -0.451683 9.03001 0.492677 6.05448C1.36209 3.67029 2.93879 1.92706 5.22276 0.824816C6.2358 0.369114 7.29118 0.0955451 8.38886 0.00410232ZM12.3179 5.50098C12.5135 5.48617 12.7042 5.50525 12.8901 5.55824C13.0572 5.67119 13.1335 5.83022 13.1189 6.0354C12.8681 8.02756 12.5693 10.0125 12.2225 11.9903C12.1645 12.4316 12.0374 12.8515 11.8411 13.25C11.676 13.4705 11.4662 13.5278 11.2117 13.4218C11.0503 13.3793 10.8978 13.3157 10.7539 13.231C9.77787 12.5677 8.80515 11.8996 7.83575 11.2269C7.68435 11.0296 7.67165 10.826 7.7976 10.6161C8.76502 9.63528 9.74411 8.66825 10.7348 7.715C10.7888 7.45061 10.6934 7.36789 10.4487 7.46687C9.16219 8.35977 7.86523 9.23775 6.55786 10.1008C6.12876 10.3264 5.68375 10.3646 5.22276 10.2153C4.6783 10.0676 4.14426 9.88947 3.62063 9.68089C3.49769 9.5621 3.47862 9.42849 3.56342 9.28008C3.70147 9.14209 3.86042 9.0339 4.04024 8.95561C6.79288 7.77691 9.55208 6.62536 12.3179 5.50098Z" fill="#9096A7"/>
</svg>
