<svg width="16" height="16" viewBox="0 0 16 16" fill="none" xmlns="http://www.w3.org/2000/svg">
<path fill-rule="evenodd" clip-rule="evenodd" d="M8.00011 16H7.99683C6.56136 15.9994 5.15338 15.614 3.92513 14.8853L3.63298 14.712L0.605187 15.506L1.41338 12.555L1.22314 12.2524C0.422339 10.9791 -0.000628364 9.50749 7.00666e-07 7.99649C0.00175684 3.58721 3.59055 0 8.00328 0C10.14 0.000812505 12.1487 0.833735 13.6591 2.34531C15.1695 3.85688 16.0008 5.86613 16 8.00294C15.9982 12.4125 12.4094 16 8.00011 16ZM12.3882 10.0107C12.1477 9.89036 10.9653 9.30874 10.7449 9.22851C10.5244 9.14828 10.3641 9.10818 10.2038 9.34886C10.0435 9.58952 9.58257 10.131 9.44224 10.2915C9.30198 10.4519 9.1617 10.472 8.92119 10.3517C8.6807 10.2313 7.9058 9.97748 6.98718 9.15842C6.27227 8.521 5.78957 7.73366 5.64929 7.493C5.50901 7.25231 5.63438 7.12218 5.75476 7.00235C5.86294 6.89463 5.99525 6.72156 6.11551 6.58116C6.23574 6.44078 6.27581 6.3405 6.35597 6.18007C6.43615 6.01961 6.39607 5.87921 6.33594 5.75888C6.27581 5.63855 5.79487 4.45523 5.59443 3.97388C5.39924 3.50509 5.20095 3.56852 5.05333 3.56118C4.91321 3.55421 4.75272 3.55272 4.59241 3.55272C4.43208 3.55272 4.17154 3.61289 3.95108 3.85355C3.73064 4.09424 3.10939 4.67586 3.10939 5.85916C3.10939 7.04245 3.97113 8.18562 4.09139 8.34608C4.21162 8.50653 5.78721 10.9348 8.19973 11.9762C8.77351 12.2239 9.22149 12.3718 9.57075 12.4826C10.1469 12.6656 10.6712 12.6397 11.0856 12.5779C11.5476 12.5089 12.5084 11.9963 12.7089 11.4347C12.9093 10.8731 12.9093 10.3918 12.8491 10.2915C12.789 10.1912 12.6287 10.131 12.3882 10.0107Z" fill="#9096A7"/>
</svg>
